<svg width="120" height="120" viewBox="0 0 120 120" fill="none" xmlns="http://www.w3.org/2000/svg">
<rect width="120" height="120" rx="60" fill="#E6F3FF"/>
<path d="M76.667 49.083H43.3337C41.0325 49.083 39.167 50.9485 39.167 53.2497V74.083C39.167 76.3842 41.0325 78.2497 43.3337 78.2497H76.667C78.9682 78.2497 80.8337 76.3842 80.8337 74.083V53.2497C80.8337 50.9485 78.9682 49.083 76.667 49.083Z" stroke="#004C99" stroke-width="4" stroke-linecap="round" stroke-linejoin="round"/>
<path d="M68.3337 78.25V44.9167C68.3337 43.8116 67.8947 42.7518 67.1133 41.9704C66.3319 41.189 65.2721 40.75 64.167 40.75H55.8337C54.7286 40.75 53.6688 41.189 52.8874 41.9704C52.106 42.7518 51.667 43.8116 51.667 44.9167V78.25" stroke="#004C99" stroke-width="4" stroke-linecap="round" stroke-linejoin="round"/>
</svg>
