<svg width="234" height="48" viewBox="0 0 234 48" fill="none" xmlns="http://www.w3.org/2000/svg">
<path d="M76.2363 30.2364L78.7549 27.2401C80.3345 28.6894 82.3908 29.52 84.5413 29.5775C86.2846 29.5775 87.338 28.8892 87.338 27.7628V27.7076C87.338 26.6365 86.6741 26.088 83.4359 25.2635C79.5301 24.277 77.0115 23.2059 77.0115 19.3851V19.3298C77.0115 15.8403 79.8342 13.5325 83.7957 13.5325C86.4085 13.4907 88.9539 14.3566 90.9915 15.9803L88.7771 19.1643C87.3287 18.0435 85.5731 17.3828 83.7401 17.2686C82.1043 17.2686 81.2475 18.0121 81.2475 18.9471V19.0023C81.2475 20.2648 82.0784 20.6772 85.4278 21.5274C89.3596 22.5433 91.5702 23.9457 91.5702 27.299V27.3506C91.5702 31.1714 88.64 33.3136 84.4597 33.3136C81.4308 33.3249 78.5037 32.2295 76.2364 30.2364" fill="#014D98"/>
<path d="M101.708 12.2955L97.943 9.54949L101.571 7.98511L104.92 12.2955H101.708ZM95.8399 13.8083H110.454V17.5702H100.076V21.4719H109.212V25.2375H100.076V29.2754H110.595V33.0373H95.8398L95.8399 13.8083Z" fill="#014D98"/>
<path d="M114.944 13.8084H119.541L124.633 21.9396L129.726 13.8084H134.321V33.0373H130.085V20.486L124.633 28.6983H124.521L119.125 20.567V33.0373H114.944V13.8084Z" fill="#014D98"/>
<path d="M145.401 12.2955L141.636 9.54949L145.263 7.98511L148.613 12.2955H145.401ZM139.533 13.8083H154.147V17.5702H143.769V21.4719H152.904V25.2375H143.769V29.2754H154.288V33.0373H139.533V13.8083Z" fill="#014D98"/>
<path d="M166.64 23.478V23.4228C166.616 22.1033 166.862 20.7927 167.362 19.57C167.863 18.3473 168.607 17.2378 169.551 16.3084C170.496 15.379 171.62 14.649 172.856 14.1624C174.092 13.6758 175.415 13.4426 176.744 13.477C178.156 13.4077 179.568 13.6362 180.885 14.1476C182.202 14.659 183.395 15.4416 184.385 16.4438L181.674 19.5505C180.373 18.2097 178.593 17.4298 176.718 17.3788C175.949 17.3937 175.191 17.5619 174.488 17.8734C173.786 18.1849 173.154 18.6333 172.63 19.192C172.106 19.7506 171.7 20.4081 171.437 21.1255C171.174 21.8428 171.059 22.6052 171.099 23.3676V23.4228C171.053 24.1891 171.164 24.9565 171.425 25.6793C171.685 26.4021 172.09 27.0654 172.614 27.6296C173.139 28.1937 173.773 28.6472 174.478 28.9628C175.183 29.2785 175.945 29.4499 176.718 29.4668C177.677 29.4577 178.624 29.253 179.5 28.8655C180.376 28.478 181.163 27.9159 181.811 27.2141L184.522 29.9343C183.546 31.0666 182.324 31.9641 180.948 32.5591C179.572 33.154 178.077 33.4308 176.577 33.3686C175.264 33.3894 173.96 33.1476 172.743 32.6576C171.526 32.1675 170.42 31.4393 169.493 30.5163C168.566 29.5933 167.835 28.4944 167.345 27.2852C166.855 26.076 166.615 24.7812 166.64 23.478" fill="#014D98"/>
<path d="M192.944 13.8095H188.682V33.0386H192.944V13.8095Z" fill="#014D98"/>
<path d="M202.855 17.7096H196.956V13.8084H213.014V17.7096H207.12V33.0373H202.855V17.7096Z" fill="#014D98"/>
<path d="M229.158 13.8074L224.451 21.5305L219.826 13.8074H214.844L222.292 25.4535V33.0364H226.555V25.3725L234 13.8074H229.158Z" fill="#014D98"/>
<path d="M52.4552 8.85428L63.9679 20.2761H40.9424L52.4552 8.85428Z" fill="#79C6C0"/>
<path d="M52.4552 39.1637L63.9679 27.742H40.9424L52.4552 39.1637Z" fill="#79C6C0"/>
<path d="M0 20.2773H23.0224L11.5096 8.8555L0 20.2773Z" fill="#79C6C0"/>
<path d="M0 27.742L11.5096 39.1637L23.0224 27.742H0Z" fill="#79C6C0"/>
<path d="M20.5039 47.6335H43.5263L32.0135 36.2117L20.5039 47.6335Z" fill="#014D98"/>
<path d="M20.5039 -0.000396729L32.0135 11.4214L43.5263 -0.000396729H20.5039Z" fill="#014D98"/>
<path d="M39.3142 23.9737L32.0137 31.2184V16.7305L39.3142 23.9737Z" fill="#FFD500"/>
<path d="M24.7178 23.9737L32.0167 31.2184V16.7305L24.7178 23.9737Z" fill="#DB9506"/>
</svg>
