<svg width="120" height="120" viewBox="0 0 120 120" fill="none" xmlns="http://www.w3.org/2000/svg">
<rect width="120" height="120" rx="60" fill="#E6F3FF"/>
<path d="M79.3275 82.625V77.7083C79.3275 75.1004 78.2915 72.5992 76.4474 70.7551C74.6032 68.911 72.1021 67.875 69.4941 67.875H49.8275C47.2195 67.875 44.7184 68.911 42.8743 70.7551C41.0301 72.5992 39.9941 75.1004 39.9941 77.7083V82.625" stroke="#004C99" stroke-width="4" stroke-linecap="round" stroke-linejoin="round"/>
<path d="M59.6615 58.0417C65.0923 58.0417 69.4948 53.6391 69.4948 48.2083C69.4948 42.7775 65.0923 38.375 59.6615 38.375C54.2307 38.375 49.8281 42.7775 49.8281 48.2083C49.8281 53.6391 54.2307 58.0417 59.6615 58.0417Z" stroke="#004C99" stroke-width="4" stroke-linecap="round" stroke-linejoin="round"/>
</svg>
